<svg id="Layer_1" enable-background="new 0 0 512 512" height="512" viewBox="0 0 512 512" width="512" xmlns="http://www.w3.org/2000/svg"><g><path d="m20.273 365.934 365.095-365.095c.374-.374.881-.585 1.41-.586l123.218-.249c1.106-.002 2.004.894 2.004 2v113.475c0 .521-.203 1.022-.567 1.395l-361.59 371.514z" fill="#ffd54f"/><path d="m149.843 488.388 361.59-371.514c.364-.374.567-.874.567-1.395v-28.6l-378.255 386.295z" fill="#ffc128"/><path d="m253.159 3.395-165.728 170.273-75.605-71.453 101.629-101.629c.375-.375.884-.586 1.414-.586h136.857c1.769 0 2.667 2.127 1.433 3.395z" fill="#ffd54f"/><path d="m225.558 0-154.224 158.454 16.098 15.214 165.727-170.273c1.234-1.268.336-3.395-1.433-3.395z" fill="#ffc128"/><path d="m512 224.102v138.852c0 .521-.203 1.022-.567 1.395l-93.015 95.564-75.605-71.453 165.772-165.772c1.261-1.26 3.415-.367 3.415 1.414z" fill="#ffd54f"/><path d="m402.321 444.7 16.098 15.214 93.015-95.564c.363-.373.567-.874.567-1.395v-29.38z" fill="#ffc128"/><g fill="#f66f1c"><path d="m373.593 76.806c-2.93-2.929-7.678-2.929-10.607 0l-261.784 261.783c-2.929 2.929-2.929 7.678 0 10.606 1.465 1.464 3.385 2.197 5.304 2.197s3.839-.732 5.304-2.197l261.783-261.783c2.928-2.929 2.928-7.678 0-10.606z"/><path d="m487.624 54.066c-2.93-2.929-7.678-2.929-10.607 0l-329.476 329.476c-2.929 2.929-2.929 7.678 0 10.606 1.465 1.464 3.385 2.197 5.304 2.197s3.839-.732 5.304-2.197l329.475-329.476c2.929-2.928 2.929-7.677 0-10.606z"/><path d="m149.943 19.107c-2.93-2.929-7.678-2.929-10.607 0l-71.499 71.5c-2.929 2.929-2.929 7.678 0 10.606 1.465 1.464 3.385 2.197 5.304 2.197s3.839-.732 5.304-2.197l71.499-71.5c2.928-2.928 2.928-7.677-.001-10.606z"/><path d="m472.54 337.577-58.098 58.097c-2.929 2.929-2.929 7.678 0 10.606 1.465 1.465 3.384 2.197 5.304 2.197 1.919 0 3.839-.732 5.304-2.197l58.098-58.097c2.929-2.929 2.929-7.678 0-10.606s-7.677-2.93-10.608 0z"/></g><path d="m115.98 334.417h-28.448c-48.342 0-87.532 39.19-87.532 87.532v28.448c0 34.023 27.58 61.603 61.603 61.603h28.448c48.343 0 87.532-39.19 87.532-87.532v-28.448c0-34.023-27.58-61.603-61.603-61.603z" fill="#f68d36"/><path d="m115.98 334.417h-28.448c-.412 0-.818.025-1.229.031 33.453.657 60.374 27.961 60.374 61.572v28.448c0 47.931-38.53 86.841-86.303 87.501.41.008.816.031 1.228.031h28.448c48.343 0 87.532-39.19 87.532-87.532v-28.448c.001-34.023-27.579-61.603-61.602-61.603z" fill="#f66f1c"/><path d="m52.545 187.445h-16.6c-19.852 0-35.945-16.093-35.945-35.945v-16.599c0-28.208 22.867-51.075 51.075-51.075h16.599c19.852 0 35.945 16.093 35.945 35.945v16.599c.001 28.208-22.866 51.075-51.074 51.075z" fill="#f68d36"/><path d="m67.675 83.826h-16.6c-2.658 0-5.268.204-7.817.595 16.753 3.056 29.456 17.715 29.456 35.35v16.6c0 25.55-18.761 46.717-43.258 50.48 2.106.384 4.272.595 6.489.595h16.6c28.208 0 51.075-22.867 51.075-51.075v-16.6c0-19.852-16.093-35.945-35.945-35.945z" fill="#f66f1c"/><path d="m383.529 473.69h-16.599c-19.852 0-35.945-16.093-35.945-35.945v-16.599c0-28.208 22.867-51.075 51.075-51.075h16.599c19.852 0 35.945 16.093 35.945 35.945v16.599c0 28.207-22.867 51.075-51.075 51.075z" fill="#f68d36"/><path d="m398.659 370.07h-16.599c-2.658 0-5.268.204-7.817.595 16.753 3.056 29.456 17.715 29.456 35.35v16.599c0 25.55-18.761 46.717-43.258 50.48 2.106.384 4.272.595 6.489.595h16.599c28.208 0 51.075-22.867 51.075-51.075v-16.599c0-19.852-16.093-35.945-35.945-35.945z" fill="#f66f1c"/></g></svg>